<svg width="143" height="140" viewBox="0 0 143 140" fill="none" xmlns="http://www.w3.org/2000/svg">
<g clip-path="url(#clip0)">
<path d="M90.7823 31.4855H52.25C51.3719 31.4865 50.5301 31.8369 49.9092 32.4596C49.2883 33.0823 48.939 33.9266 48.938 34.8073V120.7L48.4963 120.835L39.0438 123.738C38.5958 123.875 38.1119 123.828 37.6984 123.608C37.2848 123.387 36.9754 123.011 36.838 122.562L8.72088 30.4468C8.58404 29.9975 8.63068 29.5121 8.85054 29.0972C9.07039 28.6824 9.44547 28.3721 9.89335 28.2345L24.4598 23.761L66.6883 10.7968L81.2546 6.32339C81.4763 6.25497 81.7093 6.23106 81.9402 6.25303C82.1711 6.275 82.3954 6.34243 82.6003 6.45145C82.8052 6.56047 82.9866 6.70894 83.1342 6.88837C83.2818 7.0678 83.3927 7.27466 83.4605 7.49712L90.6476 31.0425L90.7823 31.4855Z" fill="#F2F2F2"/>
<path d="M99.1909 31.0433L90.5288 2.66563C90.3847 2.1928 90.1491 1.75309 89.8355 1.37163C89.5218 0.99016 89.1364 0.674413 88.701 0.442427C88.2657 0.21044 87.7891 0.0667588 87.2984 0.0195996C86.8076 -0.0275597 86.3125 0.0227269 85.8411 0.167581L65.3617 6.45478L23.1354 19.4212L2.6559 25.7106C1.70453 26.0036 0.907938 26.6632 0.440971 27.5446C-0.0259966 28.4261 -0.125187 29.4574 0.165176 30.4121L29.7705 127.395C30.0063 128.166 30.4823 128.841 31.1284 129.32C31.7746 129.799 32.557 130.059 33.3608 130.059C33.7328 130.06 34.1027 130.004 34.4581 129.893L48.4968 125.584L48.9384 125.446V124.984L48.4968 125.119L34.3279 129.47C33.4881 129.727 32.5811 129.639 31.8058 129.226C31.0305 128.813 30.4502 128.108 30.1922 127.267L0.589208 30.2815C0.461383 29.8644 0.416833 29.4262 0.458107 28.9919C0.49938 28.5576 0.625664 28.1357 0.829734 27.7504C1.0338 27.3651 1.31165 27.024 1.64736 26.7465C1.98307 26.4691 2.37005 26.2608 2.78613 26.1335L23.2656 19.8441L65.492 6.87998L85.9715 0.59057C86.2871 0.49397 86.6152 0.444715 86.9452 0.444407C87.6533 0.446001 88.3423 0.674979 88.9113 1.0978C89.4803 1.52062 89.8994 2.11507 90.1071 2.79408L98.7294 31.0433L98.8664 31.4862H99.3257L99.1909 31.0433Z" fill="#3F3D56"/>
<path d="M27.0884 28.307C26.6628 28.3067 26.2486 28.1696 25.9063 27.9158C25.5641 27.6621 25.312 27.305 25.187 26.897L22.343 17.5799C22.2665 17.3296 22.24 17.0667 22.2649 16.8061C22.2898 16.5456 22.3657 16.2925 22.4881 16.0613C22.6105 15.8302 22.7772 15.6255 22.9785 15.4589C23.1798 15.2924 23.4119 15.1672 23.6614 15.0906L62.5093 3.16206C63.0133 3.00782 63.5576 3.06043 64.0229 3.30833C64.4883 3.55623 64.8365 3.97917 64.9913 4.48432L67.8353 13.8016C67.989 14.307 67.9365 14.853 67.6893 15.3197C67.4422 15.7863 67.0206 16.1356 66.517 16.2909L27.669 28.2195C27.4809 28.2774 27.2852 28.3069 27.0884 28.307V28.307Z" fill="#20929D"/>
<path d="M41.9864 9.95549C44.4253 9.95549 46.4024 7.97249 46.4024 5.52633C46.4024 3.08017 44.4253 1.09717 41.9864 1.09717C39.5474 1.09717 37.5703 3.08017 37.5703 5.52633C37.5703 7.97249 39.5474 9.95549 41.9864 9.95549Z" fill="#20929D"/>
<path d="M41.9866 8.33105C43.531 8.33105 44.783 7.07535 44.783 5.52636C44.783 3.97738 43.531 2.72168 41.9866 2.72168C40.4422 2.72168 39.1902 3.97738 39.1902 5.52636C39.1902 7.07535 40.4422 8.33105 41.9866 8.33105Z" fill="white"/>
<path d="M133.064 128.927H58.4325C57.9349 128.926 57.4578 128.728 57.106 128.375C56.7542 128.022 56.5562 127.544 56.5557 127.045V37.3541C56.5562 36.855 56.7541 36.3765 57.106 36.0236C57.4578 35.6707 57.9349 35.4722 58.4325 35.4717H133.064C133.561 35.4723 134.039 35.6708 134.39 36.0237C134.742 36.3765 134.94 36.855 134.941 37.3541V127.045C134.94 127.544 134.742 128.022 134.39 128.375C134.039 128.728 133.561 128.926 133.064 128.927V128.927Z" fill="#E6E6E6"/>
<path d="M98.729 31.0425H52.25C51.2549 31.0439 50.301 31.441 49.5973 32.1467C48.8937 32.8525 48.4977 33.8092 48.4963 34.8073V125.118L48.9379 124.983V34.8073C48.939 33.9266 49.2883 33.0823 49.9092 32.4595C50.5301 31.8368 51.3719 31.4865 52.25 31.4854H98.8659L98.729 31.0425ZM139.246 31.0425H52.25C51.2549 31.0439 50.301 31.441 49.5973 32.1467C48.8937 32.8525 48.4977 33.8092 48.4963 34.8073V136.235C48.4977 137.233 48.8937 138.19 49.5973 138.896C50.301 139.601 51.2549 139.998 52.25 140H139.246C140.241 139.998 141.195 139.601 141.899 138.896C142.603 138.19 142.999 137.233 143 136.235V34.8073C142.999 33.8092 142.603 32.8525 141.899 32.1467C141.195 31.441 140.241 31.0439 139.246 31.0425V31.0425ZM142.558 136.235C142.557 137.116 142.208 137.96 141.587 138.583C140.966 139.206 140.124 139.556 139.246 139.557H52.25C51.3719 139.556 50.5301 139.206 49.9092 138.583C49.2883 137.96 48.939 137.116 48.9379 136.235V34.8073C48.939 33.9266 49.2883 33.0823 49.9092 32.4595C50.5301 31.8368 51.3719 31.4865 52.25 31.4854H139.246C140.124 31.4865 140.966 31.8368 141.587 32.4595C142.208 33.0823 142.557 33.9266 142.558 34.8073V136.235Z" fill="#3F3D56"/>
<path d="M116.062 40.7866H75.4342C74.9074 40.786 74.4023 40.5758 74.0297 40.2021C73.6572 39.8285 73.4476 39.3219 73.447 38.7934V29.0493C73.4476 28.5208 73.6572 28.0142 74.0297 27.6406C74.4023 27.2669 74.9074 27.0567 75.4342 27.0562H116.062C116.589 27.0567 117.094 27.2669 117.467 27.6406C117.839 28.0142 118.049 28.5208 118.049 29.0493V38.7934C118.049 39.3219 117.839 39.8285 117.467 40.2021C117.094 40.5758 116.589 40.786 116.062 40.7866V40.7866Z" fill="#20929D"/>
<path d="M95.7481 27.7206C98.187 27.7206 100.164 25.7376 100.164 23.2915C100.164 20.8453 98.187 18.8623 95.7481 18.8623C93.3092 18.8623 91.332 20.8453 91.332 23.2915C91.332 25.7376 93.3092 27.7206 95.7481 27.7206Z" fill="#20929D"/>
<path d="M95.7481 25.9893C97.2337 25.9893 98.4379 24.7815 98.4379 23.2915C98.4379 21.8016 97.2337 20.5938 95.7481 20.5938C94.2626 20.5938 93.0583 21.8016 93.0583 23.2915C93.0583 24.7815 94.2626 25.9893 95.7481 25.9893Z" fill="white"/>
</g>
<defs>
<clipPath id="clip0">
<rect width="143" height="140" fill="white"/>
</clipPath>
</defs>
</svg>
